{
  "accessors": [
    {
      "bufferView": 2,
      "componentType": 5126,
      "count": 35134,
      "max": [
        -1663.6341552734375,
        17306.087890625,
        6815.1708984375
      ],
      "min": [
        -14381.9541015625,
        4434.06298828125,
        -5914.61962890625
      ],
      "type": "VEC3"
    },
    {
      "bufferView": 2,
      "byteOffset": 421608,
      "componentType": 5126,
      "count": 35134,
      "max": [
        1.0,
        1.0,
        1.0
      ],
      "min": [
        -1.0,
        -1.0,
        -1.0
      ],
      "type": "VEC3"
    },
    {
      "bufferView": 1,
      "componentType": 5126,
      "count": 35134,
      "max": [
        1.0028735399246216,
        17306.087890625
      ],
      "min": [
        -8649.0673828125,
        0.0
      ],
      "type": "VEC2"
    },
    {
      "bufferView": 0,
      "componentType": 5125,
      "count": 93780,
      "type": "SCALAR"
    },
    {
      "bufferView": 2,
      "byteOffset": 843216,
      "componentType": 5126,
      "count": 10704,
      "max": [
        -1156.207275390625,
        20382.921875,
        7282.3818359375
      ],
      "min": [
        -14744.0234375,
        16874.37890625,
        -6307.5712890625
      ],
      "type": "VEC3"
    },
    {
      "bufferView": 2,
      "byteOffset": 971664,
      "componentType": 5126,
      "count": 10704,
      "max": [
        0.9999595284461975,
        0.9999998807907104,
        0.9999141693115234
      ],
      "min": [
        -0.9999595284461975,
        -0.9999998807907104,
        -0.9999170899391174
      ],
      "type": "VEC3"
    },
    {
      "bufferView": 1,
      "byteOffset": 281072,
      "componentType": 5126,
      "count": 10704,
      "max": [
        1.5187175273895264,
        1.5188833475112915
      ],
      "min": [
        -0.5187175273895264,
        -0.5188833475112915
      ],
      "type": "VEC2"
    },
    {
      "bufferView": 0,
      "byteOffset": 375120,
      "componentType": 5125,
      "count": 56040,
      "type": "SCALAR"
    },
    {
      "bufferView": 2,
      "byteOffset": 1100112,
      "componentType": 5126,
      "count": 1704,
      "max": [
        725.7774047851563,
        7507.990234375,
        908.8163452148438
      ],
      "min": [
        -6894.14453125,
        1217.193603515625,
        190.89244079589844
      ],
      "type": "VEC3"
    },
    {
      "bufferView": 2,
      "byteOffset": 1120560,
      "componentType": 5126,
      "count": 1704,
      "max": [
        1.0,
        1.0,
        1.0
      ],
      "min": [
        -1.0,
        -1.0,
        -1.0
      ],
      "type": "VEC3"
    },
    {
      "bufferView": 1,
      "byteOffset": 366704,
      "componentType": 5126,
      "count": 1704,
      "max": [
        10.886661529541016,
        112.61985778808594
      ],
      "min": [
        -103.41217041015625,
        18.257904052734375
      ],
      "type": "VEC2"
    },
    {
      "bufferView": 0,
      "byteOffset": 599280,
      "componentType": 5125,
      "count": 9924,
      "type": "SCALAR"
    },
    {
      "bufferView": 2,
      "byteOffset": 1141008,
      "componentType": 5126,
      "count": 1704,
      "max": [
        725.7774047851563,
        7507.990234375,
        908.8163452148438
      ],
      "min": [
        -6894.14453125,
        1217.193603515625,
        190.89244079589844
      ],
      "type": "VEC3"
    },
    {
      "bufferView": 2,
      "byteOffset": 1161456,
      "componentType": 5126,
      "count": 1704,
      "max": [
        1.0,
        1.0,
        1.0
      ],
      "min": [
        -1.0,
        -1.0,
        -1.0
      ],
      "type": "VEC3"
    },
    {
      "bufferView": 1,
      "byteOffset": 380336,
      "componentType": 5126,
      "count": 1704,
      "max": [
        10.886661529541016,
        112.61985778808594
      ],
      "min": [
        -103.41217041015625,
        18.257904052734375
      ],
      "type": "VEC2"
    },
    {
      "bufferView": 0,
      "byteOffset": 638976,
      "componentType": 5125,
      "count": 9924,
      "type": "SCALAR"
    },
    {
      "bufferView": 2,
      "byteOffset": 1181904,
      "componentType": 5126,
      "count": 1704,
      "max": [
        725.7774047851563,
        7507.990234375,
        908.8163452148438
      ],
      "min": [
        -6894.14453125,
        1217.193603515625,
        190.89244079589844
      ],
      "type": "VEC3"
    },
    {
      "bufferView": 2,
      "byteOffset": 1202352,
      "componentType": 5126,
      "count": 1704,
      "max": [
        1.0,
        1.0,
        1.0
      ],
      "min": [
        -1.0,
        -1.0,
        -1.0
      ],
      "type": "VEC3"
    },
    {
      "bufferView": 1,
      "byteOffset": 393968,
      "componentType": 5126,
      "count": 1704,
      "max": [
        10.886661529541016,
        112.61985778808594
      ],
      "min": [
        -103.41217041015625,
        18.257904052734375
      ],
      "type": "VEC2"
    },
    {
      "bufferView": 0,
      "byteOffset": 678672,
      "componentType": 5125,
      "count": 9924,
      "type": "SCALAR"
    },
    {
      "bufferView": 2,
      "byteOffset": 1222800,
      "componentType": 5126,
      "count": 1704,
      "max": [
        725.7774047851563,
        7507.990234375,
        908.8163452148438
      ],
      "min": [
        -6894.14453125,
        1217.193603515625,
        190.89244079589844
      ],
      "type": "VEC3"
    },
    {
      "bufferView": 2,
      "byteOffset": 1243248,
      "componentType": 5126,
      "count": 1704,
      "max": [
        1.0,
        1.0,
        1.0
      ],
      "min": [
        -1.0,
        -1.0,
        -1.0
      ],
      "type": "VEC3"
    },
    {
      "bufferView": 1,
      "byteOffset": 407600,
      "componentType": 5126,
      "count": 1704,
      "max": [
        10.886661529541016,
        112.61985778808594
      ],
      "min": [
        -103.41217041015625,
        18.257904052734375
      ],
      "type": "VEC2"
    },
    {
      "bufferView": 0,
      "byteOffset": 718368,
      "componentType": 5125,
      "count": 9924,
      "type": "SCALAR"
    },
    {
      "bufferView": 2,
      "byteOffset": 1263696,
      "componentType": 5126,
      "count": 15824,
      "max": [
        838.198486328125,
        1283.3160400390625,
        1078.3026123046875
      ],
      "min": [
        -839.4171752929688,
        -719.9332275390625,
        21.084320068359375
      ],
      "type": "VEC3"
    },
    {
      "bufferView": 2,
      "byteOffset": 1453584,
      "componentType": 5126,
      "count": 15824,
      "max": [
        1.0,
        1.0,
        1.0
      ],
      "min": [
        -1.0,
        -1.0,
        -1.0
      ],
      "type": "VEC3"
    },
    {
      "bufferView": 1,
      "byteOffset": 421232,
      "componentType": 5126,
      "count": 15824,
      "max": [
        1.0027472972869873,
        1.0
      ],
      "min": [
        0.0,
        0.0
      ],
      "type": "VEC2"
    },
    {
      "bufferView": 0,
      "byteOffset": 758064,
      "componentType": 5125,
      "count": 19758,
      "type": "SCALAR"
    },
    {
      "bufferView": 2,
      "byteOffset": 1643472,
      "componentType": 5126,
      "count": 15824,
      "max": [
        838.198486328125,
        1283.3160400390625,
        1078.3026123046875
      ],
      "min": [
        -839.4171752929688,
        -719.9332275390625,
        21.084320068359375
      ],
      "type": "VEC3"
    },
    {
      "bufferView": 2,
      "byteOffset": 1833360,
      "componentType": 5126,
      "count": 15824,
      "max": [
        1.0,
        1.0,
        1.0
      ],
      "min": [
        -1.0,
        -1.0,
        -1.0
      ],
      "type": "VEC3"
    },
    {
      "bufferView": 1,
      "byteOffset": 547824,
      "componentType": 5126,
      "count": 15824,
      "max": [
        1.0027472972869873,
        1.0
      ],
      "min": [
        0.0,
        0.0
      ],
      "type": "VEC2"
    },
    {
      "bufferView": 0,
      "byteOffset": 837096,
      "componentType": 5125,
      "count": 19758,
      "type": "SCALAR"
    },
    {
      "bufferView": 2,
      "byteOffset": 2023248,
      "componentType": 5126,
      "count": 15824,
      "max": [
        838.198486328125,
        1283.3160400390625,
        1078.3026123046875
      ],
      "min": [
        -839.4171752929688,
        -719.9332275390625,
        21.084320068359375
      ],
      "type": "VEC3"
    },
    {
      "bufferView": 2,
      "byteOffset": 2213136,
      "componentType": 5126,
      "count": 15824,
      "max": [
        1.0,
        1.0,
        1.0
      ],
      "min": [
        -1.0,
        -1.0,
        -1.0
      ],
      "type": "VEC3"
    },
    {
      "bufferView": 1,
      "byteOffset": 674416,
      "componentType": 5126,
      "count": 15824,
      "max": [
        1.0027472972869873,
        1.0
      ],
      "min": [
        0.0,
        0.0
      ],
      "type": "VEC2"
    },
    {
      "bufferView": 0,
      "byteOffset": 916128,
      "componentType": 5125,
      "count": 19758,
      "type": "SCALAR"
    },
    {
      "bufferView": 2,
      "byteOffset": 2403024,
      "componentType": 5126,
      "count": 15824,
      "max": [
        838.198486328125,
        1283.3160400390625,
        1078.3026123046875
      ],
      "min": [
        -839.4171752929688,
        -719.9332275390625,
        21.084320068359375
      ],
      "type": "VEC3"
    },
    {
      "bufferView": 2,
      "byteOffset": 2592912,
      "componentType": 5126,
      "count": 15824,
      "max": [
        1.0,
        1.0,
        1.0
      ],
      "min": [
        -1.0,
        -1.0,
        -1.0
      ],
      "type": "VEC3"
    },
    {
      "bufferView": 1,
      "byteOffset": 801008,
      "componentType": 5126,
      "count": 15824,
      "max": [
        1.0027472972869873,
        1.0
      ],
      "min": [
        0.0,
        0.0
      ],
      "type": "VEC2"
    },
    {
      "bufferView": 0,
      "byteOffset": 995160,
      "componentType": 5125,
      "count": 19758,
      "type": "SCALAR"
    }
  ],
  "asset": {
    "extras": {
      "author": "Giimann (https://sketchfab.com/giimann)",
      "license": "CC-BY-4.0 (http://creativecommons.org/licenses/by/4.0/)",
      "source": "https://sketchfab.com/3d-models/doctors-chair-6b8335348bc74cd3b560047940048572",
      "title": "Doctors Chair"
    },
    "generator": "Sketchfab-12.66.0",
    "version": "2.0"
  },
  "bufferViews": [
    {
      "buffer": 0,
      "byteLength": 1074192,
      "name": "floatBufferViews",
      "target": 34963
    },
    {
      "buffer": 0,
      "byteLength": 927600,
      "byteOffset": 1074192,
      "byteStride": 8,
      "name": "floatBufferViews",
      "target": 34962
    },
    {
      "buffer": 0,
      "byteLength": 2782800,
      "byteOffset": 2001792,
      "byteStride": 12,
      "name": "floatBufferViews",
      "target": 34962
    }
  ],
  "buffers": [
    {
      "byteLength": 4784592,
      "uri": "scene.bin"
    }
  ],
  "materials": [
    {
      "doubleSided": true,
      "name": "steel",
      "pbrMetallicRoughness": {
        "baseColorFactor": [
          0.13536274764917863,
          0.13536274764917863,
          0.13536274764917863,
          1.0
        ],
        "metallicFactor": 0.9181425421266973,
        "roughnessFactor": 0.6
      }
    },
    {
      "doubleSided": true,
      "name": "leather_black",
      "pbrMetallicRoughness": {
        "baseColorFactor": [
          0.00473512005003685,
          0.00473512005003685,
          0.00473512005003685,
          1.0
        ],
        "metallicFactor": 0.0,
        "roughnessFactor": 0.6
      }
    },
    {
      "doubleSided": true,
      "name": "Material_14",
      "pbrMetallicRoughness": {
        "baseColorFactor": [
          0.0051906903296647855,
          0.0051906903296647855,
          0.0051906903296647855,
          1.0
        ],
        "metallicFactor": 0.0,
        "roughnessFactor": 0.42652432918924815
      }
    }
  ],
  "meshes": [
    {
      "name": "Cylinder05_steel_0",
      "primitives": [
        {
          "attributes": {
            "NORMAL": 1,
            "POSITION": 0,
            "TEXCOORD_0": 2
          },
          "indices": 3,
          "material": 0,
          "mode": 4
        }
      ]
    },
    {
      "name": "Object_leather black_0",
      "primitives": [
        {
          "attributes": {
            "NORMAL": 5,
            "POSITION": 4,
            "TEXCOORD_0": 6
          },
          "indices": 7,
          "material": 1,
          "mode": 4
        }
      ]
    },
    {
      "name": "Object02_steel_0",
      "primitives": [
        {
          "attributes": {
            "NORMAL": 9,
            "POSITION": 8,
            "TEXCOORD_0": 10
          },
          "indices": 11,
          "material": 0,
          "mode": 4
        }
      ]
    },
    {
      "name": "Object04_steel_0",
      "primitives": [
        {
          "attributes": {
            "NORMAL": 13,
            "POSITION": 12,
            "TEXCOORD_0": 14
          },
          "indices": 15,
          "material": 0,
          "mode": 4
        }
      ]
    },
    {
      "name": "Object05_steel_0",
      "primitives": [
        {
          "attributes": {
            "NORMAL": 17,
            "POSITION": 16,
            "TEXCOORD_0": 18
          },
          "indices": 19,
          "material": 0,
          "mode": 4
        }
      ]
    },
    {
      "name": "Object01_steel_0",
      "primitives": [
        {
          "attributes": {
            "NORMAL": 21,
            "POSITION": 20,
            "TEXCOORD_0": 22
          },
          "indices": 23,
          "material": 0,
          "mode": 4
        }
      ]
    },
    {
      "name": "Object08_Material #14_0",
      "primitives": [
        {
          "attributes": {
            "NORMAL": 25,
            "POSITION": 24,
            "TEXCOORD_0": 26
          },
          "indices": 27,
          "material": 2,
          "mode": 4
        }
      ]
    },
    {
      "name": "Object07_Material #14_0",
      "primitives": [
        {
          "attributes": {
            "NORMAL": 29,
            "POSITION": 28,
            "TEXCOORD_0": 30
          },
          "indices": 31,
          "material": 2,
          "mode": 4
        }
      ]
    },
    {
      "name": "Object09_Material #14_0",
      "primitives": [
        {
          "attributes": {
            "NORMAL": 33,
            "POSITION": 32,
            "TEXCOORD_0": 34
          },
          "indices": 35,
          "material": 2,
          "mode": 4
        }
      ]
    },
    {
      "name": "Object06_Material #14_0",
      "primitives": [
        {
          "attributes": {
            "NORMAL": 37,
            "POSITION": 36,
            "TEXCOORD_0": 38
          },
          "indices": 39,
          "material": 2,
          "mode": 4
        }
      ]
    }
  ],
  "nodes": [
    {
      "children": [
        1
      ],
      "matrix": [
        1.0,
        0.0,
        0.0,
        0.0,
        0.0,
        2.220446049250313e-16,
        -1.0,
        0.0,
        0.0,
        1.0,
        2.220446049250313e-16,
        0.0,
        0.0,
        0.0,
        0.0,
        1.0
      ],
      "name": "Sketchfab_model"
    },
    {
      "children": [
        2
      ],
      "matrix": [
        1.0,
        0.0,
        0.0,
        0.0,
        0.0,
        0.0,
        1.0,
        0.0,
        0.0,
        -1.0,
        0.0,
        0.0,
        0.0,
        0.0,
        0.0,
        1.0
      ],
      "name": "b9efa2ed46e64ca68984256b94584207.fbx"
    },
    {
      "children": [
        3
      ],
      "name": "RootNode"
    },
    {
      "children": [
        4,
        6,
        8,
        11,
        14,
        17,
        20,
        23,
        26,
        29
      ],
      "matrix": [
        0.025457017123699188,
        0.0,
        0.0,
        0.0,
        0.0,
        5.652593309801543e-18,
        -0.025457017123699188,
        0.0,
        0.0,
        0.025457017123699188,
        5.652593309801543e-18,
        0.0,
        -108.95562744140625,
        274.1444396972656,
        -103.07421112060547,
        1.0
      ],
      "name": "doctors chair"
    },
    {
      "children": [
        5
      ],
      "matrix": [
        1.0,
        0.0,
        0.0,
        0.0,
        0.0,
        -4.371138651038109e-08,
        0.999999999999999,
        0.0,
        0.0,
        -0.999999999999999,
        -4.371138651038109e-08,
        0.0,
        7532.7724609375,
        526.5126953125,
        -9831.4951171875,
        1.0
      ],
      "name": "Cylinder05"
    },
    {
      "mesh": 0,
      "name": "Cylinder05_steel_0"
    },
    {
      "children": [
        7
      ],
      "matrix": [
        1.0,
        0.0,
        0.0,
        0.0,
        0.0,
        -4.371138651038109e-08,
        0.999999999999999,
        0.0,
        0.0,
        -0.999999999999999,
        -4.371138651038109e-08,
        0.0,
        7532.7724609375,
        526.5126953125,
        -9831.4951171875,
        1.0
      ],
      "name": "Object"
    },
    {
      "mesh": 1,
      "name": "Object_leather black_0"
    },
    {
      "children": [
        9
      ],
      "matrix": [
        1.0,
        0.0,
        0.0,
        0.0,
        0.0,
        -4.371138651038109e-08,
        0.999999999999999,
        0.0,
        0.0,
        -0.999999999999999,
        -4.371138651038109e-08,
        0.0,
        -357.767578125,
        -23.18115234375,
        -6437.46533203125,
        1.0
      ],
      "name": "Object02"
    },
    {
      "children": [
        10
      ],
      "matrix": [
        1.0,
        0.0,
        -0.0,
        0.0,
        0.0,
        1.0,
        0.0,
        0.0,
        0.0,
        0.0,
        1.0,
        0.0,
        7890.53955078125,
        -3394.028564453125,
        -549.6934814453125,
        1.0
      ],
      "name": "Object_9"
    },
    {
      "mesh": 2,
      "name": "Object02_steel_0"
    },
    {
      "children": [
        12
      ],
      "matrix": [
        -0.9999999999999467,
        3.2584135935021087e-07,
        -2.6469779601696886e-23,
        0.0,
        1.4242977672103015e-14,
        4.37113869544703e-08,
        0.9999999999999989,
        0.0,
        3.2584135935021055e-07,
        0.9999999999999458,
        -4.3711386732425694e-08,
        0.0,
        -357.767578125,
        -23.18115234375,
        -6437.46533203125,
        1.0
      ],
      "name": "Object04"
    },
    {
      "children": [
        13
      ],
      "matrix": [
        1.0,
        0.0,
        -0.0,
        0.0,
        0.0,
        1.0,
        0.0,
        0.0,
        0.0,
        0.0,
        1.0,
        0.0,
        7890.53955078125,
        -3394.028564453125,
        -549.6934814453125,
        1.0
      ],
      "name": "Object_12"
    },
    {
      "mesh": 3,
      "name": "Object04_steel_0"
    },
    {
      "children": [
        15
      ],
      "matrix": [
        1.192487997236924e-08,
        1.0,
        -1.1102230246251565e-16,
        0.0,
        4.371138656589224e-08,
        -4.440892098500626e-16,
        0.9999999999999991,
        0.0,
        0.999999999999999,
        -1.1924880027880391e-08,
        -4.371138651038109e-08,
        0.0,
        -357.767578125,
        -23.18115234375,
        -6437.46533203125,
        1.0
      ],
      "name": "Object05"
    },
    {
      "children": [
        16
      ],
      "matrix": [
        1.0,
        0.0,
        -0.0,
        0.0,
        0.0,
        1.0,
        0.0,
        0.0,
        0.0,
        0.0,
        1.0,
        0.0,
        7890.53955078125,
        -3394.028564453125,
        -549.6934814453125,
        1.0
      ],
      "name": "Object_15"
    },
    {
      "mesh": 4,
      "name": "Object05_steel_0"
    },
    {
      "children": [
        18
      ],
      "matrix": [
        -1.6292067983592062e-07,
        -0.9999999999999856,
        -4.4703471258067395e-08,
        0.0,
        -4.3711394004386506e-08,
        -4.4703464041617735e-08,
        0.999999999999998,
        0.0,
        -0.9999999999999857,
        1.6292068188983322e-07,
        -4.3711386732425694e-08,
        0.0,
        -357.767578125,
        -23.18115234375,
        -6437.46533203125,
        1.0
      ],
      "name": "Object01"
    },
    {
      "children": [
        19
      ],
      "matrix": [
        1.0,
        0.0,
        -0.0,
        0.0,
        0.0,
        1.0,
        0.0,
        0.0,
        0.0,
        0.0,
        1.0,
        0.0,
        7890.53955078125,
        -3394.028564453125,
        -549.6934814453125,
        1.0
      ],
      "name": "Object_18"
    },
    {
      "mesh": 5,
      "name": "Object01_steel_0"
    },
    {
      "children": [
        21
      ],
      "matrix": [
        -0.9999999999999887,
        1.5099578399880393e-07,
        1.3234889800848443e-23,
        0.0,
        6.600235096760145e-15,
        4.371138662140339e-08,
        0.999999999999999,
        0.0,
        1.509957839988038e-07,
        0.9999999999999877,
        -4.3711386732425694e-08,
        0.0,
        -357.767578125,
        -23.18115234375,
        -6437.46533203125,
        1.0
      ],
      "name": "Object08"
    },
    {
      "children": [
        22
      ],
      "matrix": [
        1.0,
        0.0,
        -0.0,
        0.0,
        0.0,
        1.0,
        0.0,
        0.0,
        0.0,
        0.0,
        1.0,
        0.0,
        7890.53955078125,
        -3394.028564453125,
        -549.6934814453125,
        1.0
      ],
      "name": "Object_21"
    },
    {
      "mesh": 6,
      "name": "Object08_Material #14_0"
    },
    {
      "children": [
        24
      ],
      "matrix": [
        -0.9999999999999458,
        3.2584135935021055e-07,
        -4.4703467594330885e-08,
        0.0,
        -4.470345335135083e-08,
        4.371140105430271e-08,
        0.9999999999999981,
        0.0,
        3.2584136130426114e-07,
        0.9999999999999459,
        -4.371138651038109e-08,
        0.0,
        31.9482421875,
        -8282.916015625,
        -9549.8037109375,
        1.0
      ],
      "name": "Object07"
    },
    {
      "children": [
        25
      ],
      "matrix": [
        1.0,
        0.0,
        -0.0,
        0.0,
        0.0,
        1.0,
        0.0,
        0.0,
        0.0,
        0.0,
        1.0,
        0.0,
        0.6098428964614868,
        -281.6917419433594,
        -549.6934814453125,
        1.0
      ],
      "name": "Object_24"
    },
    {
      "mesh": 7,
      "name": "Object07_Material #14_0"
    },
    {
      "children": [
        27
      ],
      "matrix": [
        -1.0,
        -0.0,
        -0.0,
        -0.0,
        -0.0,
        -1.1924880194413845e-08,
        0.9999999999999999,
        -0.0,
        -0.0,
        -0.9999999999999999,
        -1.1924880194413845e-08,
        -0.0,
        8247.69921875,
        -23.1806640625,
        -9549.8037109375,
        1.0
      ],
      "name": "Object09"
    },
    {
      "children": [
        28
      ],
      "matrix": [
        1.0,
        0.0,
        -0.0,
        0.0,
        0.0,
        1.0,
        0.0,
        0.0,
        0.0,
        0.0,
        1.0,
        0.0,
        0.60882568359375,
        -281.69146728515625,
        -549.6934814453125,
        1.0
      ],
      "name": "Object_27"
    },
    {
      "mesh": 8,
      "name": "Object09_Material #14_0"
    },
    {
      "children": [
        30
      ],
      "matrix": [
        -1.0,
        -0.0,
        -0.0,
        -0.0,
        -0.0,
        -1.1924880194413845e-08,
        0.9999999999999999,
        -0.0,
        -0.0,
        -0.9999999999999999,
        -1.1924880194413845e-08,
        -0.0,
        58.3095703125,
        8282.9169921875,
        -9549.8037109375,
        1.0
      ],
      "name": "Object06"
    },
    {
      "children": [
        31
      ],
      "matrix": [
        1.0,
        0.0,
        -0.0,
        0.0,
        0.0,
        1.0,
        0.0,
        0.0,
        0.0,
        0.0,
        1.0,
        0.0,
        0.6098428964614868,
        -281.69146728515625,
        -549.6934814453125,
        1.0
      ],
      "name": "Object_30"
    },
    {
      "mesh": 9,
      "name": "Object06_Material #14_0"
    }
  ],
  "scene": 0,
  "scenes": [
    {
      "name": "Sketchfab_Scene",
      "nodes": [
        0
      ]
    }
  ]
}
