{
  "accessors": [
    {
      "bufferView": 2,
      "componentType": 5126,
      "count": 5376,
      "max": [
        75.02659606933594,
        17.0742244720459,
        14.763779640197754
      ],
      "min": [
        -72.36691284179688,
        -74.4301986694336,
        -0.19685040414333344
      ],
      "type": "VEC3"
    },
    {
      "bufferView": 2,
      "byteOffset": 64512,
      "componentType": 5126,
      "count": 5376,
      "max": [
        1.0,
        1.0,
        1.0
      ],
      "min": [
        -1.0,
        -1.0,
        -1.0
      ],
      "type": "VEC3"
    },
    {
      "bufferView": 0,
      "componentType": 5125,
      "count": 15456,
      "type": "SCALAR"
    },
    {
      "bufferView": 2,
      "byteOffset": 129024,
      "componentType": 5126,
      "count": 7124,
      "max": [
        75.02660369873047,
        17.074222564697266,
        33.464569091796875
      ],
      "min": [
        -72.36691284179688,
        -74.43023681640625,
        -4.440892098500626e-16
      ],
      "type": "VEC3"
    },
    {
      "bufferView": 2,
      "byteOffset": 214512,
      "componentType": 5126,
      "count": 7124,
      "max": [
        1.0,
        1.0,
        1.0
      ],
      "min": [
        -1.0,
        -1.0,
        -1.0
      ],
      "type": "VEC3"
    },
    {
      "bufferView": 1,
      "componentType": 5126,
      "count": 7124,
      "max": [
        1.4244309663772583,
        0.49157050251960754
      ],
      "min": [
        -1.4244309663772583,
        -0.7212380170822144
      ],
      "type": "VEC2"
    },
    {
      "bufferView": 0,
      "byteOffset": 61824,
      "componentType": 5125,
      "count": 13620,
      "type": "SCALAR"
    },
    {
      "bufferView": 2,
      "byteOffset": 300000,
      "componentType": 5126,
      "count": 3168,
      "max": [
        72.91353607177734,
        15.105329513549805,
        35.513492584228516
      ],
      "min": [
        -70.39830780029297,
        -72.4616928100586,
        11.417319297790527
      ],
      "type": "VEC3"
    },
    {
      "bufferView": 2,
      "byteOffset": 338016,
      "componentType": 5126,
      "count": 3168,
      "max": [
        1.0,
        1.0,
        1.0
      ],
      "min": [
        -1.0,
        -1.0,
        -1.0
      ],
      "type": "VEC3"
    },
    {
      "bufferView": 1,
      "byteOffset": 56992,
      "componentType": 5126,
      "count": 3168,
      "max": [
        2.1736810207366943,
        2.1736810207366943
      ],
      "min": [
        -2.1736810207366943,
        -0.049107231199741364
      ],
      "type": "VEC2"
    },
    {
      "bufferView": 0,
      "byteOffset": 116304,
      "componentType": 5125,
      "count": 6048,
      "type": "SCALAR"
    },
    {
      "bufferView": 2,
      "byteOffset": 376032,
      "componentType": 5126,
      "count": 8,
      "max": [
        46.48329162597656,
        17.07421875,
        28.811830520629883
      ],
      "min": [
        -70.05673217773438,
        -74.43023681640625,
        7.874015808105469
      ],
      "type": "VEC3"
    },
    {
      "bufferView": 0,
      "byteOffset": 140496,
      "componentType": 5125,
      "count": 8,
      "type": "SCALAR"
    },
    {
      "bufferView": 2,
      "byteOffset": 376128,
      "componentType": 5126,
      "count": 416,
      "max": [
        26.624011993408203,
        -26.757539749145508,
        15.354331016540527
      ],
      "min": [
        -21.801189422607422,
        -59.43471145629883,
        14.763779640197754
      ],
      "type": "VEC3"
    },
    {
      "bufferView": 2,
      "byteOffset": 381120,
      "componentType": 5126,
      "count": 416,
      "max": [
        0.9994645714759827,
        0.9994645714759827,
        1.0
      ],
      "min": [
        -0.9994645714759827,
        -0.9994645714759827,
        -1.0
      ],
      "type": "VEC3"
    },
    {
      "bufferView": 0,
      "byteOffset": 140528,
      "componentType": 5125,
      "count": 1224,
      "type": "SCALAR"
    },
    {
      "bufferView": 2,
      "byteOffset": 386112,
      "componentType": 5126,
      "count": 392,
      "max": [
        57.37595748901367,
        4.775759696960449,
        30.564119338989258
      ],
      "min": [
        -59.739559173583984,
        -4.623226165771484,
        21.233409881591797
      ],
      "type": "VEC3"
    },
    {
      "bufferView": 2,
      "byteOffset": 390816,
      "componentType": 5126,
      "count": 392,
      "max": [
        1.0,
        1.0,
        1.0
      ],
      "min": [
        -1.0,
        -1.0,
        -1.0
      ],
      "type": "VEC3"
    },
    {
      "bufferView": 0,
      "byteOffset": 145424,
      "componentType": 5125,
      "count": 1152,
      "type": "SCALAR"
    },
    {
      "bufferView": 2,
      "byteOffset": 395520,
      "componentType": 5126,
      "count": 888,
      "max": [
        57.37595748901367,
        4.775759696960449,
        33.63498306274414
      ],
      "min": [
        -59.739559173583984,
        -4.623226165771484,
        21.233409881591797
      ],
      "type": "VEC3"
    },
    {
      "bufferView": 2,
      "byteOffset": 406176,
      "componentType": 5126,
      "count": 888,
      "max": [
        1.0,
        1.0,
        1.0
      ],
      "min": [
        -1.0,
        -1.0,
        -1.0
      ],
      "type": "VEC3"
    },
    {
      "bufferView": 0,
      "byteOffset": 150032,
      "componentType": 5125,
      "count": 2640,
      "type": "SCALAR"
    },
    {
      "bufferView": 2,
      "byteOffset": 416832,
      "componentType": 5126,
      "count": 48,
      "max": [
        56.31011199951172,
        3.7099153995513916,
        33.63498306274414
      ],
      "min": [
        -58.6737174987793,
        -3.5573818683624268,
        33.63498306274414
      ],
      "type": "VEC3"
    },
    {
      "bufferView": 0,
      "byteOffset": 160592,
      "componentType": 5125,
      "count": 96,
      "type": "SCALAR"
    },
    {
      "bufferView": 2,
      "byteOffset": 417408,
      "componentType": 5126,
      "count": 496,
      "max": [
        57.37595748901367,
        4.775759696960449,
        33.63498306274414
      ],
      "min": [
        -59.739559173583984,
        -4.623226165771484,
        26.784591674804688
      ],
      "type": "VEC3"
    },
    {
      "bufferView": 2,
      "byteOffset": 423360,
      "componentType": 5126,
      "count": 496,
      "max": [
        0.999603807926178,
        0.999603807926178,
        0.203998863697052
      ],
      "min": [
        -0.999603807926178,
        -0.999603807926178,
        -1.0
      ],
      "type": "VEC3"
    },
    {
      "bufferView": 0,
      "byteOffset": 160976,
      "componentType": 5125,
      "count": 1488,
      "type": "SCALAR"
    }
  ],
  "asset": {
    "extras": {
      "author": "budakbina (https://sketchfab.com/budakbina)",
      "license": "CC-BY-4.0 (http://creativecommons.org/licenses/by/4.0/)",
      "source": "https://sketchfab.com/3d-models/sofa-set-4230c38118dc41878ddf79ea06bac33c",
      "title": "Sofa Set"
    },
    "generator": "Sketchfab-12.66.0",
    "version": "2.0"
  },
  "bufferViews": [
    {
      "buffer": 0,
      "byteLength": 166928,
      "name": "floatBufferViews",
      "target": 34963
    },
    {
      "buffer": 0,
      "byteLength": 82336,
      "byteOffset": 166928,
      "byteStride": 8,
      "name": "floatBufferViews",
      "target": 34962
    },
    {
      "buffer": 0,
      "byteLength": 429312,
      "byteOffset": 249264,
      "byteStride": 12,
      "name": "floatBufferViews",
      "target": 34962
    }
  ],
  "buffers": [
    {
      "byteLength": 678576,
      "uri": "scene.bin"
    }
  ],
  "images": [
    {
      "uri": "textures/Wood_Cherry_Original_baseColor.jpeg"
    },
    {
      "uri": "textures/Carpet_Plush_Charcoal_baseColor.jpeg"
    }
  ],
  "materials": [
    {
      "name": "Color_M09",
      "pbrMetallicRoughness": {
        "baseColorFactor": [
          0.0,
          0.0,
          0.0,
          1.0
        ],
        "metallicFactor": 0.0,
        "roughnessFactor": 0.6
      }
    },
    {
      "name": "Wood_Cherry_Original",
      "pbrMetallicRoughness": {
        "baseColorTexture": {
          "index": 0
        },
        "metallicFactor": 0.0,
        "roughnessFactor": 0.6
      }
    },
    {
      "name": "Carpet_Plush_Charcoal",
      "pbrMetallicRoughness": {
        "baseColorTexture": {
          "index": 1
        },
        "metallicFactor": 0.0,
        "roughnessFactor": 0.6
      }
    },
    {
      "name": "edge_color1528642255",
      "pbrMetallicRoughness": {
        "metallicFactor": 0.0,
        "roughnessFactor": 0.6
      }
    },
    {
      "alphaMode": "BLEND",
      "name": "Translucent_Glass_Gray",
      "pbrMetallicRoughness": {
        "baseColorFactor": [
          0.501961,
          0.501961,
          0.501961,
          0.501961
        ],
        "metallicFactor": 0.0,
        "roughnessFactor": 0.6
      }
    },
    {
      "name": "Color_M08",
      "pbrMetallicRoughness": {
        "baseColorFactor": [
          0.117647,
          0.117647,
          0.117647,
          1.0
        ],
        "metallicFactor": 0.0,
        "roughnessFactor": 0.6
      }
    },
    {
      "name": "material_0",
      "pbrMetallicRoughness": {
        "baseColorFactor": [
          0.643137,
          0.698039,
          0.733333,
          1.0
        ],
        "metallicFactor": 0.0,
        "roughnessFactor": 0.6
      }
    },
    {
      "name": "edge_color000255",
      "pbrMetallicRoughness": {
        "metallicFactor": 0.0,
        "roughnessFactor": 0.6
      }
    },
    {
      "name": "material",
      "pbrMetallicRoughness": {
        "metallicFactor": 0.0,
        "roughnessFactor": 0.6
      }
    }
  ],
  "meshes": [
    {
      "name": "Material2",
      "primitives": [
        {
          "attributes": {
            "NORMAL": 1,
            "POSITION": 0
          },
          "indices": 2,
          "material": 0,
          "mode": 4
        }
      ]
    },
    {
      "name": "Material2",
      "primitives": [
        {
          "attributes": {
            "NORMAL": 4,
            "POSITION": 3,
            "TEXCOORD_0": 5
          },
          "indices": 6,
          "material": 1,
          "mode": 4
        }
      ]
    },
    {
      "name": "Material2",
      "primitives": [
        {
          "attributes": {
            "NORMAL": 8,
            "POSITION": 7,
            "TEXCOORD_0": 9
          },
          "indices": 10,
          "material": 2,
          "mode": 4
        }
      ]
    },
    {
      "name": "Material2",
      "primitives": [
        {
          "attributes": {
            "POSITION": 11
          },
          "indices": 12,
          "material": 3,
          "mode": 1
        }
      ]
    },
    {
      "name": "Material2",
      "primitives": [
        {
          "attributes": {
            "NORMAL": 14,
            "POSITION": 13
          },
          "indices": 15,
          "material": 4,
          "mode": 4
        }
      ]
    },
    {
      "name": "Material3",
      "primitives": [
        {
          "attributes": {
            "NORMAL": 17,
            "POSITION": 16
          },
          "indices": 18,
          "material": 5,
          "mode": 4
        }
      ]
    },
    {
      "name": "Material2",
      "primitives": [
        {
          "attributes": {
            "NORMAL": 20,
            "POSITION": 19
          },
          "indices": 21,
          "material": 6,
          "mode": 4
        }
      ]
    },
    {
      "name": "Material2",
      "primitives": [
        {
          "attributes": {
            "POSITION": 22
          },
          "indices": 23,
          "material": 7,
          "mode": 1
        }
      ]
    },
    {
      "name": "Material2",
      "primitives": [
        {
          "attributes": {
            "NORMAL": 25,
            "POSITION": 24
          },
          "indices": 26,
          "material": 8,
          "mode": 4
        }
      ]
    }
  ],
  "nodes": [
    {
      "children": [
        1
      ],
      "matrix": [
        1.0,
        0.0,
        0.0,
        0.0,
        0.0,
        2.220446049250313e-16,
        -1.0,
        0.0,
        0.0,
        1.0,
        2.220446049250313e-16,
        0.0,
        0.0,
        0.0,
        0.0,
        1.0
      ],
      "name": "Sketchfab_model"
    },
    {
      "children": [
        2,
        3,
        4,
        5,
        6,
        7,
        8,
        9,
        10,
        11
      ],
      "name": "Collada visual scene group"
    },
    {
      "mesh": 0,
      "name": "Material2"
    },
    {
      "mesh": 1,
      "name": "Material2"
    },
    {
      "mesh": 2,
      "name": "Material2"
    },
    {
      "mesh": 3,
      "name": "Material2"
    },
    {
      "mesh": 4,
      "name": "Material2"
    },
    {
      "mesh": 5,
      "name": "Material3"
    },
    {
      "mesh": 6,
      "name": "Material2"
    },
    {
      "mesh": 7,
      "name": "Material2"
    },
    {
      "mesh": 8,
      "name": "Material2"
    },
    {
      "children": [
        12
      ],
      "name": "SketchUp"
    },
    {
      "children": [
        13
      ],
      "matrix": [
        0.8973093,
        -0.4414024,
        5.551115e-17,
        0.0,
        0.1083263,
        0.2202122,
        0.9694184,
        0.0,
        -0.4279036,
        -0.8698681,
        0.245414,
        0.0,
        -67.36656,
        -174.3095,
        59.24591,
        1.0
      ],
      "name": "skp_camera_Last_Saved_SketchUp_View"
    },
    {
      "name": "ID1"
    }
  ],
  "samplers": [
    {
      "magFilter": 9729,
      "minFilter": 9987,
      "wrapS": 10497,
      "wrapT": 10497
    }
  ],
  "scene": 0,
  "scenes": [
    {
      "name": "Sketchfab_Scene",
      "nodes": [
        0
      ]
    }
  ],
  "textures": [
    {
      "sampler": 0,
      "source": 0
    },
    {
      "sampler": 0,
      "source": 1
    }
  ]
}
